<svg width="538" height="280" viewBox="0 0 538 280" fill="none" xmlns="http://www.w3.org/2000/svg">
<path d="M7.01712 237.189L98.6284 96.0462C101.388 91.7943 107.612 91.7943 110.372 96.0462L201.983 237.189C205.006 241.846 201.663 248 196.111 248H12.8887C7.33673 248 3.9944 241.846 7.01712 237.189Z" fill="#4D6932"/>
<path d="M122.017 260.189L213.628 119.046C216.388 114.794 222.612 114.794 225.372 119.046L316.983 260.189C320.006 264.846 316.663 271 311.111 271H127.889C122.337 271 118.994 264.846 122.017 260.189Z" fill="#648841"/>
<path d="M65.0171 269.189L156.628 128.046C159.388 123.794 165.612 123.794 168.372 128.046L259.983 269.189C263.006 273.846 259.663 280 254.111 280H70.8887C65.3367 280 61.9944 273.846 65.0171 269.189Z" fill="#81AE56"/>
<circle cx="182" cy="62.5" r="15" fill="#E69C60"/>
<path d="M178.128 39.9243L177.065 32.5" stroke="#F5C9A6" stroke-width="3" stroke-linecap="round"/>
<path d="M160.873 50.1882L154.872 45.6903" stroke="#F5C9A6" stroke-width="3" stroke-linecap="round"/>
<path d="M156.924 68.216L149.5 69.2792" stroke="#F5C9A6" stroke-width="3" stroke-linecap="round"/>
<path d="M197.582 45.0213L202.08 39.0198" stroke="#F5C9A6" stroke-width="3" stroke-linecap="round"/>
<path d="M184.45 71.969C169.69 69.9154 161.518 73.761 162.022 87.5H251.735C253.584 73.8285 245.653 69.8116 230.802 70.6753C228.794 54.8533 212.65 54.0354 205.383 64.2035C199.472 58.3112 183.669 59.7534 184.45 71.969Z" fill="white"/>
<g clip-path="url(#clip0)">
<path d="M391.13 195C403.892 195 414.25 184.36 414.25 171.25V147.5H391.13C378.367 147.5 368.009 158.14 368.009 171.25C368.009 184.36 378.367 195 391.13 195Z" fill="#4D6932"/>
<path d="M368.009 123.75C368.009 110.64 378.367 100 391.13 100H414.25V147.5H391.13C378.367 147.5 368.009 136.86 368.009 123.75Z" fill="#81AE56"/>
<path d="M368.012 76.25C368.012 63.14 378.37 52.5 391.132 52.5H414.253V100H391.132C378.37 100 368.012 89.36 368.012 76.25Z" fill="#E69C60"/>
<path d="M414.25 52.5H437.37C450.133 52.5 460.491 63.14 460.491 76.25C460.491 89.36 450.133 100 437.37 100H414.25V52.5Z" fill="white"/>
<path d="M460.491 123.75C460.491 136.86 450.133 147.5 437.37 147.5C424.608 147.5 414.25 136.86 414.25 123.75C414.25 110.64 424.608 100 437.37 100C450.133 100 460.491 110.64 460.491 123.75Z" fill="#648841"/>
</g>
<defs>
<clipPath id="clip0">
<rect width="92.5" height="142.5" fill="white" transform="translate(368 52.5)"/>
</clipPath>
</defs>
</svg>
