<svg width="250" height="250" viewBox="0 0 250 250" fill="none" xmlns="http://www.w3.org/2000/svg">
<circle cx="125" cy="125" r="125" fill="#EC7162"/>
<rect x="32.5" y="60" width="182.5" height="130" rx="4" fill="#F7F6F5"/>
<path d="M37.5 72.5H210V175H37.5V72.5Z" fill="#BBD8F2"/>
<circle cx="157.5" cy="100" r="7.5" fill="#E69C60"/>
<path d="M154.314 86.2121L153.782 82.5" stroke="#F5C9A6" stroke-linecap="round"/>
<path d="M145.687 91.3441L142.686 89.0951" stroke="#F5C9A6" stroke-linecap="round"/>
<path d="M143.712 100.358L140 100.89" stroke="#F5C9A6" stroke-linecap="round"/>
<path d="M164.041 88.7607L166.29 85.7599" stroke="#F5C9A6" stroke-linecap="round"/>
<path d="M158.725 104.735C151.345 103.708 147.259 105.631 147.511 112.5H192.368C193.292 105.664 189.327 103.656 181.901 104.088C180.897 96.1766 172.825 95.7677 169.192 100.852C166.236 97.9056 158.334 98.6267 158.725 104.735Z" fill="white"/>
<path d="M80.6457 93.5288C86.7959 92.6731 90.201 94.2754 89.9908 100H52.6103C51.8398 94.3035 55.1444 92.6298 61.3324 92.9897C62.169 86.3972 68.8959 86.0564 71.9236 90.2931C74.3866 87.838 80.9713 88.4389 80.6457 93.5288Z" fill="white"/>
<path d="M159.416 129.984C157.943 127.665 154.558 127.665 153.084 129.984L124.493 175H188.007L159.416 129.984Z" fill="#648841"/>
<path d="M96.8903 117.31C95.4105 115.044 92.0896 115.044 90.6098 117.31L52.9514 175H134.549L96.8903 117.31Z" fill="#4E6932"/>
<path d="M130.66 137.446C129.186 135.138 125.815 135.138 124.34 137.446L100.347 175H154.653L130.66 137.446Z" fill="#81AE56"/>
</svg>
