<svg width="28" height="50" viewBox="0 0 28 50" fill="none" xmlns="http://www.w3.org/2000/svg">
<mask id="path-1-inside-1" fill="white">
<path d="M26.4979 0.0104033L20.0141 0C12.7297 0 8.02228 4.82975 8.02228 12.3051V17.9785H1.5031C0.939764 17.9785 0.483582 18.4352 0.483582 18.9986V27.2188C0.483582 27.7821 0.940284 28.2383 1.5031 28.2383H8.02228V48.9805C8.02228 49.5438 8.47846 50 9.0418 50H17.5475C18.1108 50 18.567 49.5433 18.567 48.9805V28.2383H26.1894C26.7528 28.2383 27.209 27.7821 27.209 27.2188L27.2121 18.9986C27.2121 18.7281 27.1044 18.469 26.9135 18.2776C26.7226 18.0862 26.4625 17.9785 26.192 17.9785H18.567V13.1691C18.567 10.8574 19.1178 9.68395 22.1291 9.68395L26.4969 9.68239C27.0597 9.68239 27.5159 9.22568 27.5159 8.66286V1.02993C27.5159 0.46763 27.0602 0.0114437 26.4979 0.0104033Z"/>
</mask>
<path d="M26.4979 0.0104033L26.5016 -1.98959L26.5011 -1.98959L26.4979 0.0104033ZM20.0141 0L20.0173 -2H20.0141V0ZM8.02228 17.9785V19.9785H10.0223V17.9785H8.02228ZM8.02228 28.2383H10.0223V26.2383H8.02228V28.2383ZM18.567 28.2383V26.2383H16.567V28.2383H18.567ZM27.209 27.2188L25.209 27.218V27.2188H27.209ZM27.2121 18.9986L29.2121 18.9993V18.9986H27.2121ZM18.567 17.9785H16.567V19.9785H18.567V17.9785ZM22.1291 9.68395L22.1291 11.6839L22.1298 11.6839L22.1291 9.68395ZM26.4969 9.68239L26.4969 7.68239L26.4961 7.68239L26.4969 9.68239ZM26.5011 -1.98959L20.0173 -2L20.0109 2L26.4947 2.0104L26.5011 -1.98959ZM20.0141 -2C15.9178 -2 12.3737 -0.631746 9.85426 1.9534C7.33987 4.53336 6.02228 8.14369 6.02228 12.3051H10.0223C10.0223 8.99113 11.0584 6.44892 12.7189 4.74518C14.3742 3.04662 16.8261 2 20.0141 2V-2ZM6.02228 12.3051V17.9785H10.0223V12.3051H6.02228ZM8.02228 15.9785H1.5031V19.9785H8.02228V15.9785ZM1.5031 15.9785C-0.16615 15.9785 -1.51642 17.332 -1.51642 18.9986H2.48358C2.48358 19.5385 2.04568 19.9785 1.5031 19.9785V15.9785ZM-1.51642 18.9986V27.2188H2.48358V18.9986H-1.51642ZM-1.51642 27.2188C-1.51642 28.8873 -0.16364 30.2383 1.5031 30.2383V26.2383C2.04421 26.2383 2.48358 26.6769 2.48358 27.2188H-1.51642ZM1.5031 30.2383H8.02228V26.2383H1.5031V30.2383ZM6.02228 28.2383V48.9805H10.0223V28.2383H6.02228ZM6.02228 48.9805C6.02228 50.6484 7.37387 52 9.0418 52V48C9.58305 48 10.0223 48.4393 10.0223 48.9805H6.02228ZM9.0418 52H17.5475V48H9.0418V52ZM17.5475 52C19.2161 52 20.567 50.6472 20.567 48.9805H16.567C16.567 48.4394 17.0056 48 17.5475 48V52ZM20.567 48.9805V28.2383H16.567V48.9805H20.567ZM18.567 30.2383H26.1894V26.2383H18.567V30.2383ZM26.1894 30.2383C27.8574 30.2383 29.209 28.8867 29.209 27.2188H25.209C25.209 26.6776 25.6482 26.2383 26.1894 26.2383V30.2383ZM29.209 27.2195L29.2121 18.9993L25.2121 18.9978L25.209 27.218L29.209 27.2195ZM29.2121 18.9986C29.2121 18.1958 28.8925 17.4297 28.3297 16.8653L25.4974 19.6899C25.3163 19.5084 25.2121 19.2603 25.2121 18.9986H29.2121ZM28.3297 16.8653C27.7625 16.2966 26.9924 15.9785 26.192 15.9785V19.9785C25.9326 19.9785 25.6827 19.8758 25.4974 19.6899L28.3297 16.8653ZM26.192 15.9785H18.567V19.9785H26.192V15.9785ZM20.567 17.9785V13.1691H16.567V17.9785H20.567ZM20.567 13.1691C20.567 12.652 20.5998 12.3155 20.6506 12.0917C20.6975 11.8847 20.7415 11.8568 20.7181 11.8833C20.6442 11.9671 20.7804 11.6839 22.1291 11.6839V7.68395C20.4665 7.68395 18.8217 7.98758 17.7195 9.23597C16.6699 10.4248 16.567 11.9918 16.567 13.1691H20.567ZM22.1298 11.6839L26.4976 11.6824L26.4961 7.68239L22.1284 7.68395L22.1298 11.6839ZM26.4969 11.6824C28.1656 11.6824 29.5159 10.3289 29.5159 8.66286H25.5159C25.5159 8.12246 25.9538 7.68239 26.4969 7.68239V11.6824ZM29.5159 8.66286V1.02993H25.5159V8.66286H29.5159ZM29.5159 1.02993C29.5159 -0.636306 28.1662 -1.98651 26.5016 -1.98959L26.4942 2.0104C25.9542 2.0094 25.5159 1.57157 25.5159 1.02993H29.5159Z" fill="white" mask="url(#path-1-inside-1)"/>
</svg>
