<svg width="250" height="250" viewBox="0 0 250 250" fill="none" xmlns="http://www.w3.org/2000/svg">
<circle cx="125" cy="125" r="125" fill="#BBD8F2"/>
<g clip-path="url(#clip0)">
<path d="M103.13 195C115.892 195 126.25 184.36 126.25 171.25V147.5H103.13C90.3671 147.5 80.0092 158.14 80.0092 171.25C80.0092 184.36 90.3671 195 103.13 195Z" fill="#4D6932"/>
<path d="M80.0092 123.75C80.0092 110.64 90.3671 100 103.13 100H126.25V147.5H103.13C90.3671 147.5 80.0092 136.86 80.0092 123.75Z" fill="#81AE56"/>
<path d="M80.012 76.25C80.012 63.14 90.3699 52.5 103.132 52.5H126.253V100H103.132C90.3699 100 80.012 89.36 80.012 76.25Z" fill="#E69C60"/>
<path d="M126.25 52.5H149.37C162.133 52.5 172.491 63.14 172.491 76.25C172.491 89.36 162.133 100 149.37 100H126.25V52.5Z" fill="white"/>
<path d="M172.491 123.75C172.491 136.86 162.133 147.5 149.37 147.5C136.608 147.5 126.25 136.86 126.25 123.75C126.25 110.64 136.608 100 149.37 100C162.133 100 172.491 110.64 172.491 123.75Z" fill="#648841"/>
</g>
<defs>
<clipPath id="clip0">
<rect width="92.5" height="142.5" fill="white" transform="translate(80 52.5)"/>
</clipPath>
</defs>
</svg>
