<svg width="54" height="39" viewBox="0 0 54 39" fill="none" xmlns="http://www.w3.org/2000/svg">
<path d="M26.0555 23.9576L27.09 22.8714L27.09 22.8714L26.0555 23.9576ZM28.8991 23.914L27.8308 22.861L27.8308 22.861L28.8991 23.914ZM4 3.5H50V0.5H4V3.5ZM50.5 3.94444V35.0556H53.5V3.94444H50.5ZM50 35.5H4V38.5H50V35.5ZM3.5 35.0556V3.94445H0.5V35.0556H3.5ZM4 35.5C3.68374 35.5 3.5 35.2615 3.5 35.0556H0.5C0.5 36.9974 2.10712 38.5 4 38.5V35.5ZM50.5 35.0556C50.5 35.2615 50.3163 35.5 50 35.5V38.5C51.8929 38.5 53.5 36.9974 53.5 35.0556H50.5ZM50 3.5C50.3163 3.5 50.5 3.73854 50.5 3.94444H53.5C53.5 2.00258 51.8929 0.5 50 0.5V3.5ZM4 0.5C2.10712 0.5 0.5 2.00258 0.5 3.94445H3.5C3.5 3.73854 3.68375 3.5 4 3.5V0.5ZM1.96552 3.08621L25.021 25.0439L27.09 22.8714L4.03448 0.913793L1.96552 3.08621ZM29.9673 24.967L51.5683 3.053L49.4317 0.946998L27.8308 22.861L29.9673 24.967ZM25.021 25.0439C26.408 26.3647 28.6218 26.332 29.9673 24.967L27.8308 22.861C27.636 23.0586 27.2935 23.0652 27.09 22.8714L25.021 25.0439ZM4.07657 37.2236L21.4942 20.6138L19.4238 18.4427L2.0062 35.0526L4.07657 37.2236ZM32.8862 20.5134L48.9682 36.9658L51.1135 34.8687L35.0315 18.4163L32.8862 20.5134Z" fill="white"/>
</svg>
