<svg width="54" height="54" viewBox="0 0 54 54" fill="none" xmlns="http://www.w3.org/2000/svg">
<path d="M15.2418 8.78707L13.7418 8.787V8.78707H15.2418ZM30.3508 21.1292H28.8508V24.9878L31.457 22.1424L30.3508 21.1292ZM13.6387 16.722H3.60113V19.722H13.6387V16.722ZM3.60113 16.722C2.32391 16.722 1.29468 17.7588 1.29468 19.0302H4.29468C4.29468 19.4091 3.98738 19.722 3.60113 19.722V16.722ZM1.29468 19.0302V51.3478H4.29468V19.0302H1.29468ZM1.29468 51.3478C1.29468 52.6196 2.3241 53.656 3.60113 53.656V50.656C3.98719 50.656 4.29468 50.9689 4.29468 51.3478H1.29468ZM3.60113 53.656H13.6387V50.656H3.60113V53.656ZM13.6387 53.656C14.9157 53.656 15.9452 52.6196 15.9452 51.3478H12.9452C12.9452 50.9689 13.2526 50.656 13.6387 50.656V53.656ZM15.9452 51.3478V19.0302H12.9452V51.3478H15.9452ZM15.9452 19.0302C15.9452 17.7588 14.9159 16.722 13.6387 16.722V19.722C13.2525 19.722 12.9452 19.4091 12.9452 19.0302H15.9452ZM8.62355 0.656189C4.1413 0.656189 0.5 4.30394 0.5 8.78707H3.5C3.5 5.95766 5.80129 3.65619 8.62355 3.65619V0.656189ZM0.5 8.78707C0.5 13.2712 4.14072 16.9207 8.62355 16.9207V13.9207C5.80186 13.9207 3.5 11.6187 3.5 8.78707H0.5ZM8.62355 16.9207C13.1046 16.9207 16.7418 13.2699 16.7418 8.78707H13.7418C13.7418 11.6197 11.4412 13.9207 8.62355 13.9207V16.9207ZM16.7418 8.78713C16.742 4.30504 13.104 0.656189 8.62355 0.656189V3.65619C11.4418 3.65619 13.7419 5.95656 13.7418 8.787L16.7418 8.78713ZM39.17 15.9188C34.6796 15.9188 31.3094 17.8617 29.2447 20.1161L31.457 22.1424C33.0073 20.4496 35.5975 18.9188 39.17 18.9188V15.9188ZM31.8508 21.1292V19.0302H28.8508V21.1292H31.8508ZM31.8508 19.0302C31.8508 17.7588 30.8216 16.722 29.5443 16.722V19.722C29.1581 19.722 28.8508 19.4091 28.8508 19.0302H31.8508ZM29.5443 16.722H19.9316V19.722H29.5443V16.722ZM19.9316 16.722C18.6544 16.722 17.6252 17.7588 17.6252 19.0302H20.6252C20.6252 19.4091 20.3179 19.722 19.9316 19.722V16.722ZM17.6252 19.0302V51.3478H20.6252V19.0302H17.6252ZM17.6252 51.3478C17.6252 52.6196 18.6546 53.656 19.9316 53.656V50.656C20.3177 50.656 20.6252 50.9689 20.6252 51.3478H17.6252ZM19.9316 53.656H29.9473V50.656H19.9316V53.656ZM29.9473 53.656C31.2243 53.656 32.2537 52.6196 32.2537 51.3478H29.2537C29.2537 50.9689 29.5612 50.656 29.9473 50.656V53.656ZM32.2537 51.3478V35.3581H29.2537V51.3478H32.2537ZM32.2537 35.3581C32.2537 32.7224 32.627 31.2508 33.1837 30.4505C33.6405 29.7938 34.3818 29.3708 35.9618 29.3708V26.3708C33.794 26.3708 31.9313 26.9974 30.721 28.7374C29.6106 30.3336 29.2537 32.6057 29.2537 35.3581H32.2537ZM35.9618 29.3708C36.7777 29.3708 37.2636 29.5381 37.5674 29.7312C37.8629 29.9191 38.111 30.2104 38.3149 30.6901C38.767 31.7538 38.8677 33.3821 38.8677 35.6353H41.8677C41.8677 33.4892 41.8063 31.2352 41.0758 29.5166C40.6884 28.6051 40.0901 27.7801 39.1769 27.1995C38.2719 26.6242 37.1866 26.3708 35.9618 26.3708V29.3708ZM38.8677 35.6353V51.348H41.8677V35.6353H38.8677ZM38.8677 51.348C38.8677 52.6197 39.8972 53.6562 41.1742 53.6562V50.6562C41.5602 50.6562 41.8677 50.9691 41.8677 51.348H38.8677ZM41.1742 53.6562H51.1935V50.6562H41.1742V53.6562ZM51.1935 53.6562C52.4706 53.6562 53.5 52.6198 53.5 51.348H50.5C50.5 50.9691 50.8075 50.6562 51.1935 50.6562V53.6562ZM53.5 51.348V33.6212H50.5V51.348H53.5ZM53.5 33.6212C53.5 29.5894 53.1323 25.1787 51.1174 21.7548C49.0046 18.1644 45.2501 15.9188 39.17 15.9188V18.9188C44.3955 18.9188 47.056 20.7684 48.5318 23.2763C50.1056 25.9505 50.5 29.641 50.5 33.6212H53.5Z" fill="white"/>
</svg>
