<svg width="250" height="250" viewBox="0 0 250 250" fill="none" xmlns="http://www.w3.org/2000/svg">
<circle cx="125" cy="125" r="125" fill="#EC7162"/>
<rect x="82" y="38" width="87" height="174" rx="4" fill="#F7F6F5"/>
<rect x="87.6129" y="53.7581" width="75.7742" height="134.71" fill="#BBD8F2"/>
<path d="M145.492 134.304C147.07 131.684 151.449 131.684 153.027 134.304L163.387 151.505V188.468H112.871L145.492 134.304Z" fill="#648841"/>
<path d="M87.6129 188.468H146.548L106.333 128.57C104.682 126.111 100.101 126.111 98.4503 128.57L87.6129 144.711V188.468Z" fill="#4E6932"/>
<path d="M131.113 137.952C129.327 135.372 124.371 135.372 122.585 137.952L87.6129 188.468H163.387L131.113 137.952Z" fill="#81AE56"/>
<circle cx="145.145" cy="83.2258" r="9.82258" fill="#E69C60"/>
<path d="M143.087 67.1022L142.382 62.1774" stroke="#F5C9A6" stroke-width="3" stroke-linecap="round"/>
<path d="M131.641 73.9107L127.66 70.927" stroke="#F5C9A6" stroke-width="3" stroke-linecap="round"/>
<path d="M129.022 85.8693L124.097 86.5746" stroke="#F5C9A6" stroke-width="3" stroke-linecap="round"/>
<path d="M155.992 70.4833L158.975 66.5022" stroke="#F5C9A6" stroke-width="3" stroke-linecap="round"/>
<path d="M163.387 80.9192C162.471 81.5829 161.634 82.4147 160.925 83.4059C157.054 79.5474 146.706 80.4917 147.217 88.491C137.552 87.1463 132.2 89.6645 132.531 98.6613H163.387V80.9192Z" fill="white"/>
</svg>
