<svg width="250" height="250" viewBox="0 0 250 250" fill="none" xmlns="http://www.w3.org/2000/svg">
<circle cx="125" cy="125" r="125" fill="#BBD8F2"/>
<path d="M6.63843 165.299L50.8809 97.1836C53.8381 92.6307 60.5031 92.6307 63.4603 97.1836L159.572 245.158C148.593 248.311 136.994 250 125 250C70.0646 250 23.4063 214.562 6.63843 165.299Z" fill="#4E6932"/>
<path d="M85.3973 243.596L165.881 119.684C168.838 115.131 175.503 115.131 178.46 119.684L227.963 195.898C205.416 228.581 167.709 250 125 250C111.158 250 97.8423 247.75 85.3973 243.596Z" fill="#648841"/>
<path d="M50.3965 225.306L110.881 132.184C113.838 127.631 120.503 127.631 123.46 132.184L188.675 232.589C170.027 243.65 148.255 250 125 250C97.0376 250 71.2197 240.818 50.3965 225.306Z" fill="#81AE56"/>
<circle cx="145" cy="62.5" r="15" fill="#E69C60"/>
<path d="M141.128 39.9243L140.065 32.5" stroke="#F5C9A6" stroke-width="3" stroke-linecap="round"/>
<path d="M123.873 50.1882L117.872 45.6903" stroke="#F5C9A6" stroke-width="3" stroke-linecap="round"/>
<path d="M119.924 68.216L112.5 69.2792" stroke="#F5C9A6" stroke-width="3" stroke-linecap="round"/>
<path d="M160.582 45.0213L165.08 39.0198" stroke="#F5C9A6" stroke-width="3" stroke-linecap="round"/>
<path d="M147.45 71.969C132.69 69.9154 124.518 73.761 125.022 87.5H214.735C216.584 73.8285 208.653 69.8116 193.802 70.6753C191.794 54.8533 175.65 54.0354 168.383 64.2035C162.472 58.3112 146.669 59.7534 147.45 71.969Z" fill="white"/>
</svg>
